<svg width="64" height="62" viewBox="0 0 64 62" fill="none" xmlns="http://www.w3.org/2000/svg">
<path d="M33.3044 37.6728V30.4185" stroke="white" stroke-width="2.5652" stroke-linejoin="round"/>
<path d="M20.2607 30.458V37.6739L7.19118 42.2605C4.07902 43.3533 1.99991 46.2545 1.99991 49.5097V55.6303H33.304" stroke="white" stroke-width="2.5652" stroke-linejoin="round"/>
<path fill-rule="evenodd" clip-rule="evenodd" d="M39.7956 17.151C39.7956 25.6495 33.9574 32.5422 26.7522 32.5422C19.5497 32.5422 13.7088 25.6495 13.7088 17.151C13.7088 8.64733 19.5497 1.75977 26.7522 1.75977C33.9574 1.75977 39.7956 8.64733 39.7956 17.151V17.151Z" stroke="white" stroke-width="2.5652" stroke-linejoin="round"/>
<path d="M39.7652 15.7884C39.3269 15.8423 38.9356 15.7833 38.4921 15.8679C34.0496 16.7093 31.1957 15.1266 28.7487 10.9197C27.2826 13.685 22.6966 15.8679 18.927 15.8679C17.0723 15.8679 15.4732 15.4934 13.8766 14.6726" stroke="white" stroke-width="2.5652" stroke-linejoin="round"/>
<path fill-rule="evenodd" clip-rule="evenodd" d="M50.2608 60.7593C50.2608 60.7593 61.9999 54.3463 61.9999 44.0752C61.9999 36.3899 52.8695 36.3899 50.2608 44.0855C47.6522 36.3899 38.5218 36.3899 38.5218 44.7011C38.5218 54.3463 50.2608 60.7593 50.2608 60.7593V60.7593Z" stroke="white" stroke-width="2.5652" stroke-linejoin="round"/>
</svg>
