<svg width="71" height="64" viewBox="0 0 71 64" fill="none" xmlns="http://www.w3.org/2000/svg">
<path fill-rule="evenodd" clip-rule="evenodd" d="M13.6175 59.566H2V36.209H13.6175V59.566Z" stroke="white" stroke-width="2.90438" stroke-linejoin="round"/>
<path d="M13.6175 55.0877C44.1135 65.253 33.9482 65.253 68.8007 47.8267C65.7134 44.7394 63.2766 44.0133 60.0876 44.9224L47.2096 49.1947" stroke="white" stroke-width="2.90438" stroke-linecap="round" stroke-linejoin="round"/>
<path d="M13.6175 39.1133H22.3306C29.1617 39.1133 33.9482 43.4699 35.4003 44.922H44.1135C48.7431 44.922 48.7431 50.7308 44.1135 50.7308H28.1394" stroke="white" stroke-width="2.90438" stroke-linecap="round" stroke-linejoin="round"/>
<path fill-rule="evenodd" clip-rule="evenodd" d="M58.8254 12.0452C58.8254 0.720201 43.7684 -2.86096 40.4228 10.9153C37.0772 -2.86096 22.0201 0.720201 22.0201 12.0452C22.0201 21.8575 40.4228 35.1111 40.4228 35.1111C40.4228 35.1111 58.8254 23.0617 58.8254 12.0452Z" stroke="white" stroke-width="2.90438" stroke-linejoin="round"/>
</svg>
