<svg width="465" height="100" viewBox="0 0 465 100" fill="none" xmlns="http://www.w3.org/2000/svg">
<path d="M49.997 0C41.4506 0 33.4058 2.14502 26.368 5.92595C26.3381 5.94093 26.3493 5.98959 26.3868 5.98585C27.3863 5.91846 28.3933 5.88103 29.4115 5.88103C53.7667 5.88103 73.5099 25.6167 73.5286 49.9644C73.5286 49.9831 73.5436 49.9981 73.5623 49.9981H99.9689C99.9689 49.9981 100.003 49.9831 100.003 49.9644C99.9801 22.3674 77.6015 0 49.997 0Z" fill="#0D1013"/>
<path d="M70.5862 94.1152C46.231 94.1152 26.4878 74.3795 26.4691 50.0318C26.4691 50.0131 26.4541 49.9981 26.4354 49.9981H0.032547C0.032547 49.9981 -0.00114441 50.0131 -0.00114441 50.0318C0.0175731 77.6326 22.3962 100 49.997 100C58.5434 100 66.5881 97.855 73.6259 94.074C73.6559 94.0591 73.6446 94.0104 73.6072 94.0141C72.6077 94.0815 71.6007 94.119 70.5862 94.119V94.1152Z" fill="#0D1013"/>
<path d="M49.997 27.5334C50.0157 27.5334 50.0306 27.5634 50.0306 27.5634C50.5847 39.6885 60.3103 49.4141 72.4355 49.9682C72.4504 49.9719 72.4654 49.9832 72.4654 50.0019C72.4654 50.0206 72.4542 50.0356 72.4355 50.0356C60.3103 50.5896 50.5847 60.3152 50.0306 72.4404C50.0269 72.4553 50.0157 72.4703 49.997 72.4703C49.9782 72.4703 49.9633 72.4591 49.9633 72.4404C49.4092 60.3152 39.6836 50.5896 27.5585 50.0356C27.5435 50.0318 27.5285 50.0206 27.5285 50.0019C27.5285 49.9832 27.5397 49.9682 27.5585 49.9682C39.6836 49.4141 49.4092 39.6885 49.9633 27.5634C49.967 27.5484 49.9782 27.5334 49.997 27.5334Z" fill="#0D1013"/>
<path fill-rule="evenodd" clip-rule="evenodd" d="M137.595 74.9148C133.511 74.9148 129.906 73.9789 126.773 72.1034C123.639 70.2317 121.18 67.6711 119.39 64.4293C117.601 61.1874 116.706 57.4102 116.706 53.1052C116.706 48.8002 117.571 45.0118 119.308 41.74C121.041 38.4681 123.46 35.9113 126.563 34.0658C129.666 32.2202 133.23 31.2956 137.258 31.2956C141.286 31.2956 144.876 32.1491 147.871 33.8524C150.862 35.5594 153.183 37.9777 154.834 41.1073C156.481 44.2406 157.308 47.9317 157.308 52.1806V55.254C157.308 55.254 157.293 55.2877 157.275 55.2877L125.946 55.3604C126.248 58.7722 127.221 61.4483 128.865 63.3886C130.879 65.7657 133.84 66.9524 137.756 66.9524C140.609 66.9524 142.956 66.4058 144.801 65.3165C146.639 64.2309 147.841 62.6586 148.403 60.5997C148.406 60.5847 148.418 60.5772 148.432 60.5772H157.346C157.368 60.5772 157.383 60.5959 157.379 60.6184C156.481 65.0732 154.287 68.5696 150.802 71.1077C147.306 73.6532 142.903 74.926 137.591 74.926L137.595 74.9148ZM127.188 45.4348C126.703 46.543 126.349 47.7854 126.126 49.1633H147.744C147.744 46.1423 146.793 43.724 144.891 41.9084C142.989 40.0928 140.474 39.1831 137.34 39.1831C134.825 39.1831 132.729 39.7147 131.048 40.7779C129.371 41.841 128.083 43.3946 127.188 45.4348Z" fill="#0D1013"/>
<path fill-rule="evenodd" clip-rule="evenodd" d="M164.017 32.4973V92.7488L164.02 92.7376C164.02 92.7563 164.054 92.7713 164.054 92.7713H173.551C173.57 92.7713 173.585 92.7376 173.585 92.7376V67.9407C174.925 70.1231 176.868 71.8302 179.414 73.058C181.956 74.2859 184.793 74.9036 187.926 74.9036C192.007 74.9036 195.488 73.9377 198.371 72.0098C201.249 70.0819 203.447 67.454 204.956 64.126C206.464 60.8018 207.22 57.122 207.22 52.7608C207.22 48.3996 206.423 44.6262 204.828 41.4367C203.234 38.251 200.995 35.7616 198.116 33.9722C195.234 32.1828 191.812 31.2881 187.84 31.2881C184.707 31.2881 181.854 31.9582 179.283 33.3021C176.711 34.646 174.783 36.5477 173.495 39.0072L172.829 32.4935C172.825 32.4748 172.795 32.4636 172.795 32.4636H164.05C164.032 32.4636 164.017 32.4973 164.017 32.4973ZM175.131 59.9408C174.154 57.9568 173.664 55.7032 173.664 53.1876C173.664 50.5596 174.15 48.2686 175.131 46.3108C176.108 44.3566 177.504 42.8293 179.324 41.7399C181.139 40.6506 183.142 40.104 185.658 40.104C188.173 40.104 190.3 40.6618 192.033 41.7811C193.766 42.9004 195.11 44.4353 196.061 46.3931C197.012 48.351 197.487 50.6682 197.487 53.1876C197.487 55.7069 197.012 57.9418 196.061 59.8996C195.106 61.8575 193.766 63.411 192.033 64.5565C190.3 65.702 188.065 66.2748 185.658 66.2748C183.251 66.2748 181.139 65.717 179.324 64.5977C177.508 63.4784 176.108 61.9249 175.131 59.9408Z" fill="#0D1013"/>
<path d="M213.846 73.7917V32.501C213.846 32.501 213.861 32.4673 213.88 32.4673H223.377C223.377 32.4673 223.411 32.4823 223.411 32.501V73.7917C223.411 73.7917 223.396 73.8255 223.377 73.8255H213.88C213.88 73.8255 213.846 73.8105 213.846 73.7917Z" fill="#0D1013"/>
<path d="M232.68 41.7362C230.917 45.008 230.037 48.7964 230.037 53.1015H230.041C230.041 57.4626 230.89 61.281 232.597 64.5528C234.301 67.8246 236.708 70.3702 239.811 72.1858C242.915 74.0014 246.535 74.9111 250.675 74.9111C254.197 74.9111 257.383 74.226 260.236 72.8559C263.088 71.4858 265.409 69.614 267.199 67.2369C268.98 64.871 270.096 62.1308 270.549 59.0124C270.549 58.9937 270.534 58.975 270.515 58.975H260.932C260.917 58.975 260.906 58.9825 260.902 58.9975C260.284 61.281 259.098 63.0629 257.342 64.3432C255.583 65.6272 253.359 66.2711 250.675 66.2711C248.44 66.2711 246.493 65.7245 244.846 64.6352C243.195 63.5458 241.923 62.0222 241.028 60.0644C240.129 58.1065 239.684 55.838 239.684 53.1015C239.684 50.365 240.159 48.014 241.11 46.0562C242.057 44.1021 243.386 42.5748 245.093 41.4854C246.8 40.396 248.769 39.8495 251.008 39.8495C253.524 39.8495 255.635 40.4672 257.342 41.695C259.042 42.9229 260.198 44.761 260.816 47.2092C260.817 47.2131 260.821 47.2169 260.826 47.2203C260.835 47.2268 260.846 47.2317 260.846 47.2317H270.429C270.452 47.2317 270.463 47.2129 270.463 47.1942C269.898 42.3464 267.842 38.4869 264.301 35.6119C260.752 32.7331 256.208 31.2919 250.671 31.2919C246.591 31.2919 243.008 32.2165 239.935 34.062C236.861 35.9076 234.443 38.4644 232.68 41.7362Z" fill="#0D1013"/>
<path fill-rule="evenodd" clip-rule="evenodd" d="M295.046 74.9148C290.962 74.9148 287.357 73.9789 284.224 72.1034C281.091 70.2317 278.631 67.6711 276.842 64.4293C275.052 61.1874 274.158 57.4102 274.158 53.1052C274.158 48.8002 275.026 45.0118 276.759 41.74C278.493 38.4681 280.911 35.9113 284.014 34.0658C287.118 32.2202 290.685 31.2956 294.71 31.2956C298.734 31.2956 302.328 32.1491 305.322 33.8524C308.313 35.5594 310.634 37.9777 312.285 41.1073C313.932 44.2406 314.76 47.9317 314.76 52.1806V55.254C314.76 55.254 314.745 55.2877 314.726 55.2877L283.405 55.3604C283.707 58.7722 284.68 61.4483 286.324 63.3886C288.338 65.7657 291.303 66.9524 295.215 66.9524C298.067 66.9524 300.415 66.4058 302.26 65.3165C304.098 64.2309 305.3 62.6586 305.861 60.5997C305.865 60.5847 305.876 60.5772 305.891 60.5772H314.801C314.823 60.5772 314.838 60.5959 314.835 60.6184C313.936 65.0732 311.742 68.5696 308.257 71.1077C304.761 73.6532 300.358 74.926 295.046 74.926V74.9148ZM284.643 45.4348C284.158 46.543 283.805 47.7854 283.584 49.1633H305.199C305.199 46.1423 304.248 43.724 302.346 41.9084C300.445 40.0928 297.929 39.1831 294.796 39.1831C292.28 39.1831 290.184 39.7147 288.503 40.7779C286.826 41.841 285.538 43.3946 284.643 45.4348Z" fill="#0D1013"/>
<path d="M321.505 73.8217H331.003L330.999 73.818C331.018 73.818 331.033 73.7843 331.033 73.7843V51.5853C331.033 48.0627 331.969 45.2513 333.844 43.155C335.716 41.0586 338.303 40.0105 341.604 40.0105C344.345 40.0105 346.527 40.8789 348.148 42.6122C349.769 44.3454 350.581 47.0295 350.581 50.6644V73.7843C350.581 73.7908 350.585 73.7969 350.591 73.802C350.593 73.8039 350.595 73.8057 350.597 73.8073C350.599 73.8091 350.602 73.8108 350.604 73.8122C350.61 73.8159 350.615 73.818 350.615 73.818H360.198C360.217 73.818 360.232 73.7843 360.232 73.7843V48.3996C360.232 43.0876 358.918 38.9061 356.29 35.8589C353.658 32.8117 349.716 31.2881 344.461 31.2881C341.664 31.2881 339.077 31.8908 336.7 33.0925C334.323 34.2941 332.463 35.9562 331.122 38.0826L330.288 32.4898C330.284 32.4748 330.254 32.4636 330.254 32.4636H321.505C321.487 32.4636 321.472 32.4973 321.472 32.4973V73.788C321.472 73.8067 321.505 73.8217 321.505 73.8217Z" fill="#0D1013"/>
<path d="M364.705 32.4673H372.724V19.5785C372.724 19.5785 372.739 19.5448 372.758 19.5448H382.341C382.341 19.5448 382.375 19.5597 382.375 19.5785V32.4673H390.311C390.311 32.4673 390.345 32.4823 390.345 32.501V40.4896C390.345 40.4896 390.33 40.5233 390.311 40.5233H382.375V73.788C382.375 73.788 382.36 73.8217 382.341 73.8217H372.758C372.758 73.8217 372.754 73.8202 372.749 73.8175C372.745 73.8151 372.74 73.8119 372.736 73.808C372.729 73.8024 372.724 73.7955 372.724 73.788V40.5233H364.705C364.705 40.5233 364.672 40.5083 364.672 40.4896V32.501C364.672 32.501 364.687 32.4673 364.705 32.4673Z" fill="#0D1013"/>
<path fill-rule="evenodd" clip-rule="evenodd" d="M402.421 72.1034C405.554 73.9789 409.159 74.9148 413.244 74.9148V74.926C418.556 74.926 422.958 73.6532 426.454 71.1077C429.94 68.5696 432.133 65.0732 433.032 60.6184C433.035 60.5959 433.02 60.5772 432.998 60.5772H424.088C424.073 60.5772 424.062 60.5847 424.059 60.5997C423.497 62.6586 422.295 64.2309 420.457 65.3165C418.612 66.4058 416.265 66.9524 413.412 66.9524C409.5 66.9524 406.535 65.7657 404.521 63.3886C402.877 61.4483 401.904 58.7722 401.602 55.3604L432.923 55.2877C432.942 55.2877 432.957 55.254 432.957 55.254V52.1806C432.957 47.9317 432.129 44.2406 430.482 41.1073C428.831 37.9777 426.51 35.5594 423.519 33.8524C420.525 32.1491 416.931 31.2956 412.907 31.2956C408.882 31.2956 405.315 32.2202 402.211 34.0658C399.108 35.9113 396.69 38.4681 394.957 41.74C393.223 45.0118 392.355 48.8002 392.355 53.1052C392.355 57.4102 393.25 61.1874 395.039 64.4293C396.828 67.6711 399.288 70.2317 402.421 72.1034ZM401.781 49.1633C402.002 47.7854 402.355 46.543 402.84 45.4348C403.735 43.3946 405.023 41.841 406.7 40.7779C408.381 39.7147 410.477 39.1831 412.993 39.1831C416.126 39.1831 418.642 40.0928 420.543 41.9084C422.445 43.724 423.396 46.1423 423.396 49.1633H401.781Z" fill="#0D1013"/>
<path d="M465.001 32.3251V41.1597C465.001 41.1597 464.995 41.1742 464.985 41.1842C464.98 41.1894 464.974 41.1934 464.967 41.1934H461.224C457.533 41.1934 454.609 42.2154 452.457 44.2556C450.304 46.2995 449.226 49.3318 449.226 53.356V73.7917C449.226 73.7917 449.211 73.8254 449.192 73.8254H439.695C439.695 73.8254 439.661 73.8105 439.661 73.7917V32.5834C439.661 32.5834 439.676 32.5497 439.695 32.5497H448.608C448.608 32.5497 448.617 32.5527 448.625 32.5584C448.633 32.5635 448.64 32.5707 448.642 32.5796L449.253 38.7529C449.96 37.0579 451.042 35.5912 452.498 34.354C454.568 32.5908 457.252 31.7111 460.55 31.7111C461.276 31.7111 461.991 31.7523 462.688 31.8384C463.38 31.9208 464.14 32.0742 464.971 32.2951C464.986 32.2989 464.997 32.3138 464.997 32.3251H465.001Z" fill="#0D1013"/>
<path d="M218.628 24.8215C221.917 24.8215 224.584 22.155 224.584 18.8658C224.584 15.5765 221.917 12.9101 218.628 12.9101C215.339 12.9101 212.672 15.5765 212.672 18.8658C212.672 22.155 215.339 24.8215 218.628 24.8215Z" fill="#0D1013"/>
</svg>
