<svg width="220" height="121" viewBox="0 0 220 121" fill="none" xmlns="http://www.w3.org/2000/svg">
<path d="M0.172729 89.5642C0.172729 83.9228 4.59556 79.3796 10.5738 79.3796C13.2273 79.3796 15.5457 80.2944 17.345 81.7581L15.2406 84.167C13.8984 83.0387 12.3735 82.5814 10.6042 82.5814C6.73044 82.5814 3.86332 85.7527 3.86332 89.5645C3.86332 93.3764 6.73044 96.5474 10.6042 96.5474C12.6782 96.5474 14.5083 95.6022 15.6981 94.1385V90.7232H12.0683V87.7654H19.1143V95.4803C17.345 98.1334 14.1424 99.7495 10.5738 99.7495C4.59556 99.7495 0.172729 95.2364 0.172729 89.5649V89.5642Z" fill="white"/>
<path d="M51.3753 79.6843L60.2818 99.4438H56.6825L55.1267 96.0285H44.2682L42.7128 99.4438H39.1134L48.0199 79.6843H51.3753ZM53.9069 93.2234L51.6497 88.1005C50.7958 86.149 49.6976 83.4961 49.6976 83.4961C49.6976 83.4961 48.6302 86.1186 47.7456 88.1005L45.4883 93.2234H53.9069Z" fill="white"/>
<path d="M65.8913 79.6843L72.9677 89.3811C74.3707 91.3022 75.9873 94.0466 75.9873 94.0466V79.6843H79.5255V99.4438H75.8653L69.1244 90.2348C67.4163 87.887 65.8302 85.2034 65.8302 85.2034V99.4438H62.292V79.6843H65.8913Z" fill="white"/>
<path d="M89.1232 82.7337H82.1688V79.6843H99.6158V82.7337H92.6614V99.4438H89.1232V82.7337Z" fill="white"/>
<path d="M109.071 79.6843H116.819C123.254 79.6843 127.311 84.1667 127.311 89.5642C127.311 94.9617 123.254 99.4438 116.819 99.4438H109.071V79.6843ZM116.666 96.3944C120.845 96.3944 123.621 93.4977 123.621 89.5639C123.621 85.6301 120.845 82.7334 116.666 82.7334H112.609V96.3944H116.666Z" fill="white"/>
<path d="M129.538 79.6843H144.88V82.7337H133.076V88.2101H144.209V91.2288H133.076V96.3944H145.307V99.4438H129.538V79.6843H129.538Z" fill="white"/>
<path d="M151.962 79.6843L159.038 89.3811C160.441 91.3022 162.058 94.0466 162.058 94.0466V79.6843H165.596V99.4438H161.936L155.195 90.2348C153.487 87.887 151.901 85.2034 151.901 85.2034V99.4438H148.362V79.6843H151.962Z" fill="white"/>
<path d="M167.932 82.7337V79.6843H185.379V82.7337H178.425V99.4438H174.887V82.7337H167.932Z" fill="white"/>
<path d="M191.461 79.6843H194.816L203.722 99.4438H200.123L198.568 96.0285H187.709L186.154 99.4438H182.555L191.461 79.6843H191.461ZM197.348 93.2234L195.091 88.1005C194.237 86.149 193.139 83.4961 193.139 83.4961C193.139 83.4961 192.071 86.1186 191.187 88.1005L188.929 93.2234H197.348H197.348Z" fill="white"/>
<path d="M205.772 79.6843H209.31V96.3944H219.827V99.4438H205.772V79.6843Z" fill="white"/>
<path d="M33.4937 92.8438C34.7668 92.3472 35.771 91.5834 36.4821 90.5709C37.241 89.4894 37.6257 88.1657 37.6257 86.6371C37.6257 84.4816 36.8747 82.7634 35.3938 81.5289C33.9242 80.305 31.8891 79.6843 29.3452 79.6843H21.8092V99.4438H25.0006V93.5619H29.3452C29.6223 93.5619 29.9951 93.5458 30.4547 93.5144L34.6202 99.4438H38.157L33.4937 92.8438ZM25.0006 82.5158H29.2622C30.9525 82.5158 32.2547 82.8761 33.1325 83.5863C33.9963 84.2859 34.434 85.3121 34.434 86.6368C34.434 87.9615 34.0079 88.9832 33.1315 89.7019C32.2543 90.4209 30.9525 90.7854 29.2622 90.7854H25.0006V82.5154V82.5158Z" fill="white"/>
<path d="M124.51 72.4141C117.154 72.4141 111.606 65.1044 111.606 55.4113V55.385L111.68 50.1446C111.682 50.0401 111.793 49.9735 111.886 50.0213L114.363 51.3013C115.893 52.0921 117.738 52.4931 119.848 52.4931C126.451 52.4931 131.822 47.1232 131.822 40.5226C131.822 33.922 126.844 28.9044 120.489 28.5699L118.865 28.4845C118.79 28.4808 118.731 28.4193 118.731 28.3445L118.722 26.7178C118.71 24.272 117.714 22.0076 115.92 20.3416C114.129 18.6781 111.787 17.8562 109.335 18.0239C105.109 18.315 101.626 21.7138 101.234 25.9304C101.127 27.0799 101.241 28.2167 101.572 29.3092L102.191 31.3536C102.217 31.4397 102.157 31.5275 102.068 31.535L99.9381 31.7082C94.4328 32.156 90.2365 36.8386 90.3844 42.3686C90.5317 47.8655 94.9528 52.3103 100.45 52.488C102.255 52.546 104.044 52.1378 105.626 51.3071L108.112 50.0015C108.205 49.9527 108.317 50.0193 108.318 50.1241L108.393 55.411C108.393 65.104 102.846 72.4138 95.4896 72.4138C87.3037 72.4138 80.6404 60.6712 77.3971 53.6716C72.9446 44.0626 69.8348 32.7097 69.8348 26.064C69.8348 16.0533 73.5435 10.0327 76.6546 6.7452C80.3186 2.8746 85.3148 0.563721 90.0202 0.563721C95.3171 0.563721 98.6315 2.41277 101.555 4.04456C104.184 5.51102 106.454 6.77799 110 6.77799C113.546 6.77799 115.816 5.51136 118.444 4.0449C121.369 2.41311 124.683 0.563721 129.98 0.563721C134.686 0.563721 139.682 2.8746 143.344 6.7452C146.455 10.033 150.164 16.0533 150.164 26.064C150.164 32.7101 147.054 44.0626 142.602 53.6716C139.359 60.6712 132.696 72.4138 124.51 72.4138V72.4141ZM115.338 55.6528C115.421 63.0996 119.336 68.6853 124.51 68.6853C128.909 68.6853 134.407 62.4871 139.218 52.1047C143.399 43.0801 146.434 32.1287 146.434 26.0644C146.434 17.2803 143.28 12.1038 140.635 9.30783C137.663 6.16722 133.68 4.29255 129.98 4.29255C125.653 4.29255 123.035 5.75355 120.262 7.30063C117.438 8.87674 114.517 10.5065 110 10.5065C105.484 10.5065 102.563 8.87674 99.7378 7.30063C96.9657 5.75355 94.347 4.29255 90.0205 4.29255C86.3204 4.29255 82.3373 6.16756 79.3656 9.30783C76.7199 12.1038 73.5661 17.2803 73.5661 26.0644C73.5661 32.1287 76.6013 43.0801 80.7826 52.1047C85.5932 62.4871 91.0917 68.6853 95.4906 68.6853C100.657 68.6853 104.568 63.1156 104.662 55.6846C103.262 56.0812 101.799 56.2629 100.33 56.2148C92.863 55.9736 86.8572 49.9356 86.6573 42.4684C86.4751 35.6703 91.1296 29.8154 97.5623 28.3158C97.4499 27.416 97.4362 26.5033 97.5216 25.5858C98.0813 19.5696 103.051 14.7197 109.08 14.3047C112.574 14.0649 115.905 15.2382 118.46 17.6099C120.566 19.5652 121.929 22.2002 122.33 25.0191C129.866 26.2109 135.553 32.7285 135.553 40.523C135.553 49.1796 128.508 56.2219 119.849 56.2219C118.239 56.2219 116.731 56.031 115.339 55.6525L115.338 55.6528Z" fill="#84CDC0"/>
<path d="M69.3904 106.41H75.2852C79.3141 106.41 81.4346 108.784 81.4346 111.709C81.4346 114.635 79.3141 117.009 75.264 117.009H72.359V120.146H69.3904V106.41ZM75.4127 114.465C77.1727 114.465 78.3177 113.236 78.3177 111.709C78.3177 110.182 77.1727 108.953 75.4339 108.953H72.359V114.465H75.4127ZM86.1694 106.41H89.138V117.603H97.0898V120.146H86.1694V106.41ZM106.589 106.41H109.515L115.495 120.146H112.484L111.551 117.963H104.575L103.641 120.146H100.609L106.589 106.41ZM110.618 115.652L109.028 111.731C108.603 110.692 108.073 109.314 108.052 109.271C108.031 109.314 107.501 110.692 107.077 111.731L105.487 115.652H110.618ZM119.863 117.942L126.097 110.353C126.818 109.462 127.369 108.954 127.369 108.954H120.202V106.41H131.165V108.635L125.163 115.928C124.421 116.839 123.7 117.603 123.7 117.603H131.355V120.146H119.862V117.942H119.863ZM144.63 106.41L150.609 120.146H147.598L146.665 117.963H139.689L138.756 120.146H135.723L141.703 106.41H144.63ZM145.732 115.652L144.142 111.731C143.718 110.692 143.188 109.314 143.167 109.271C143.146 109.314 142.616 110.692 142.191 111.731L140.601 115.652H145.732Z" fill="#E9F1FB"/>
</svg>
