<svg width="60" height="61" viewBox="0 0 60 61" fill="none" xmlns="http://www.w3.org/2000/svg">
<path fill-rule="evenodd" clip-rule="evenodd" d="M46.7774 17.0304C46.7774 8.95438 41.4674 2.58887 34.9214 2.58887C30.6879 2.58887 26.9874 4.77575 24.8887 8.05479C22.7899 4.77575 19.0869 2.58887 14.8559 2.58887C8.30994 2.58887 3 8.95438 3 17.0304C3 25.7677 5.8481 31.3426 9.48678 34.9156C7.6919 39.0867 6.6464 44.0331 6.6464 49.3394C6.6464 52.1218 6.93224 54.8079 7.46529 57.3368C7.69705 58.429 8.67561 59.212 9.80867 59.212C11.0859 59.212 12.1546 58.2719 12.2911 57.0251C13.2825 48.0774 18.5461 41.2634 24.8887 41.2634C31.2467 41.2634 36.5206 48.118 37.4914 57.0961C37.6202 58.2998 38.6554 59.212 39.8837 59.212C41.0683 59.212 42.0906 58.391 42.3301 57.2481C42.8503 54.7445 43.1284 52.0888 43.1284 49.3394C43.1284 44.0331 42.0855 39.0867 40.2906 34.9156C43.9293 31.3426 46.7774 25.7677 46.7774 17.0304V17.0304Z" stroke="white" stroke-width="2.60866" stroke-linejoin="round"/>
</svg>
